<?xml version="1.0" encoding="utf-8"?>
<!-- Generator: Adobe Illustrator 29.2.1, SVG Export Plug-In . SVG Version: 9.03 Build 55982)  -->
<svg version="1.1" id="Layer_1" xmlns="http://www.w3.org/2000/svg" xmlns:xlink="http://www.w3.org/1999/xlink" x="0px" y="0px"
	 viewBox="0 0 512 512" style="enable-background:new 0 0 512 512;" xml:space="preserve">
<style type="text/css">
	.st0{fill:#FFFFFF;}
</style>
<g>
	<g>
		<path class="st0" d="M269.9,381.1c-97.4,36.4-193.4,41.4-197.5,41.6l-1.9,0.1v5c0,38.5,31.2,69.8,69.8,69.8h191.5
			c60.6,0,109.6-49.1,109.6-109.6c0-38.2-9.3-70.7-25-98.5C381.3,327,332.3,357.9,269.9,381.1z"/>
		<path class="st0" d="M331.8,14.4H140.3c-38.5,0-69.8,31.2-69.8,69.8v298.8c0,0,370.9-18,370.9-258.9
			C441.5,63.5,392.4,14.4,331.8,14.4z M194.4,241.9v-99.3c0-12.8,10.4-23.2,23.2-23.2h63.6c20.1,0,36.4,16.3,36.4,36.4
			C317.6,235.9,194.4,241.9,194.4,241.9z"/>
	</g>
</g>
</svg>
