<?xml version="1.0" encoding="utf-8"?>
<!-- Generator: Adobe Illustrator 29.2.1, SVG Export Plug-In . SVG Version: 9.03 Build 55982)  -->
<svg version="1.1" id="Layer_1" xmlns="http://www.w3.org/2000/svg" xmlns:xlink="http://www.w3.org/1999/xlink" x="0px" y="0px"
	 viewBox="0 0 512 512" style="enable-background:new 0 0 512 512;" xml:space="preserve">
<style type="text/css">
	.st0{display:none;fill:#FFFFFF;}
	.st1{fill:#7B1315;}
	.st2{fill:#FFFFFF;}
</style>
<rect class="st0" width="512" height="512"/>
<g>
	<g>
		<path class="st1" d="M398.3,512H113.7C50.9,512,0,461.1,0,398.3V113.7C0,50.9,50.9,0,113.7,0h284.5C461.1,0,512,50.9,512,113.7
			v284.5C512,461.1,461.1,512,398.3,512z"/>
		<path class="st2" d="M264.3,338.6c-57.8,21.6-114.8,24.6-117.1,24.7l-1.1,0.1v3c0,22.9,18.5,41.4,41.4,41.4H301
			c35.9,0,65-29.1,65-65c0-22.6-5.5-42-14.8-58.5C330.3,306.5,301.3,324.8,264.3,338.6z"/>
		<path class="st2" d="M301,121H187.4c-22.9,0-41.4,18.5-41.4,41.4v177.3c0,0,220.1-10.7,220.1-153.6C366,150.2,336.9,121,301,121z
			 M219.4,256v-58.9c0-7.6,6.2-13.7,13.7-13.7h37.7c11.9,0,21.6,9.7,21.6,21.6C292.6,252.4,219.4,256,219.4,256z"/>
	</g>
</g>
</svg>
